# xmcd
#
# Track frame offsets:
#	150
#	14536
#	24742
#	40663
#	57180
#	71487
#	89479
#	106920
#	121485
#	136587
#	153464
#	167412
#	184828
#	203410
#	220289
#	237691
#	253242
#	267674
#	284306
#	299878
#	317621
#
# Disc length: 4456 seconds
#
# Revision: 0
# Processed by: cddbd v1.5.2PL0 Copyright (c) Steve Scherf et al.
# Submitted via: EZCDAudioConverter 4.0.9.1
#
DISCID=3f116615
DTITLE=容祖儿 - Bi-heart
DYEAR=2005
DGENRE=Pop
TTITLE0=Chihuahua
TTITLE1=贪慕虚荣
TTITLE2=Give Love A Break
TTITLE3=心病
TTITLE4=男朋友与歌
TTITLE5=烟霞
TTITLE6=SOS
TTITLE7=天气报告
TTITLE8=蜃楼
TTITLE9=分身术
TTITLE10=红牌出场
TTITLE11=身骄内贵
TTITLE12=16号爱人
TTITLE13=一拍两散
TTITLE14=借过
TTITLE15=世上只有
TTITLE16=梦路
TTITLE17=凝溶
TTITLE18=候鸟树
TTITLE19=最后胜利
TTITLE20=真身上阵
EXTD=
EXTT0=
EXTT1=
EXTT2=
EXTT3=
EXTT4=
EXTT5=
EXTT6=
EXTT7=
EXTT8=
EXTT9=
EXTT10=
EXTT11=
EXTT12=
EXTT13=
EXTT14=
EXTT15=
EXTT16=
EXTT17=
EXTT18=
EXTT19=
EXTT20=
PLAYORDER=
